<svg id="Layer_1" data-name="Layer 1" xmlns="http://www.w3.org/2000/svg" xmlns:xlink="http://www.w3.org/1999/xlink" viewBox="0 0 234 152"><defs><style>.cls-1{fill:none;}.cls-2,.cls-5{fill:#8c8c8c;}.cls-3{clip-path:url(#clip-path);}.cls-4{fill:url(#New_Pattern);}.cls-5{opacity:0.95;}.cls-6{clip-path:url(#clip-path-2);}.cls-7{clip-path:url(#clip-path-3);}.cls-8{opacity:0.5;}.cls-9{fill:#fff;}.cls-10{opacity:0.6;}.cls-11{clip-path:url(#clip-path-5);}.cls-12{opacity:0.2;}.cls-13{clip-path:url(#clip-path-6);}.cls-14{clip-path:url(#clip-path-7);}.cls-15{clip-path:url(#clip-path-8);}.cls-16{clip-path:url(#clip-path-9);}.cls-17{clip-path:url(#clip-path-10);}.cls-18{clip-path:url(#clip-path-11);}.cls-19{clip-path:url(#clip-path-12);}.cls-20{clip-path:url(#clip-path-13);}.cls-21{clip-path:url(#clip-path-14);}.cls-22{clip-path:url(#clip-path-15);}</style><clipPath id="clip-path"><rect class="cls-1" width="234" height="152"/></clipPath><pattern id="New_Pattern" data-name="New Pattern" width="10" height="10" patternUnits="userSpaceOnUse" viewBox="0 0 10 10"><rect class="cls-1" width="10" height="10"/><rect class="cls-2" width="5" height="5"/><rect class="cls-2" x="5" y="5" width="5" height="5"/></pattern><clipPath id="clip-path-2"><rect class="cls-1" x="22.13" y="23.4" width="189.74" height="103"/></clipPath><clipPath id="clip-path-3"><rect class="cls-1" x="22.13" y="25.4" width="189.74" height="101"/></clipPath><clipPath id="clip-path-5"><rect class="cls-1" x="41.36" y="41.79" width="60.26" height="69.23"/></clipPath><clipPath id="clip-path-6"><rect class="cls-1" x="41.98" y="42.4" width="30.35" height="18.21"/></clipPath><clipPath id="clip-path-7"><rect class="cls-1" x="41.98" y="58.97" width="59.02" height="34.82"/></clipPath><clipPath id="clip-path-8"><rect class="cls-1" x="70.68" y="42.4" width="30.31" height="18.21"/></clipPath><clipPath id="clip-path-9"><rect class="cls-1" x="41.98" y="58.97" width="59.02" height="34.82"/></clipPath><clipPath id="clip-path-10"><rect class="cls-1" x="41.98" y="92.15" width="30.35" height="18.25"/></clipPath><clipPath id="clip-path-11"><rect class="cls-1" x="70.68" y="92.14" width="30.31" height="18.25"/></clipPath><clipPath id="clip-path-12"><rect class="cls-1" x="41.98" y="58.97" width="1.64" height="34.82"/></clipPath><clipPath id="clip-path-13"><rect class="cls-1" x="99.35" y="58.97" width="1.65" height="34.82"/></clipPath><clipPath id="clip-path-14"><rect class="cls-1" x="70.68" y="42.4" width="1.64" height="67.9"/></clipPath><clipPath id="clip-path-15"><rect class="cls-1" x="122.66" y="56.41" width="67.04" height="37.94"/></clipPath></defs><title>ARkit_Badges</title><g class="cls-3"><rect class="cls-4" width="234" height="152"/><rect class="cls-5" width="234" height="152"/><g class="cls-6"><g class="cls-7"><g class="cls-8"><g class="cls-7"><path class="cls-9" d="M200,126H33.54A11.57,11.57,0,0,1,22,114.46V37.54A11.57,11.57,0,0,1,33.54,26H200.46A11.57,11.57,0,0,1,212,37.54v76.92A11.58,11.58,0,0,1,200.45,126"/></g></g><g class="cls-10"><g class="cls-11"><path d="M79.85,49.5a1.44,1.44,0,0,1-.72-.19L71.5,44.89l-7.66,4.42a1.44,1.44,0,1,1-1.44-2.5L70.79,42a1.43,1.43,0,0,1,1.44,0l8.35,4.83a1.44,1.44,0,0,1-.72,2.69"/><path d="M71.5,87.49A1.44,1.44,0,0,1,70.06,86V76.38a1.44,1.44,0,1,1,2.88,0V86a1.44,1.44,0,0,1-1.44,1.44"/><path d="M42.8,70.89a1.44,1.44,0,0,1-1.44-1.44V59.79a1.44,1.44,0,1,1,2.88,0v9.66a1.44,1.44,0,0,1-1.44,1.44"/><path d="M100.17,70.89a1.44,1.44,0,0,1-1.44-1.44V59.79a1.44,1.44,0,1,1,2.88,0v9.66a1.44,1.44,0,0,1-1.44,1.44"/><path d="M100.18,94.41A1.44,1.44,0,0,1,98.74,93V83.3a1.44,1.44,0,0,1,1.44-1.44h0a1.44,1.44,0,0,1,1.44,1.44V93a1.44,1.44,0,0,1-1.44,1.44Z"/><path d="M42.8,94.41A1.44,1.44,0,0,1,41.36,93V83.3a1.44,1.44,0,1,1,2.88,0V93a1.44,1.44,0,0,1-1.44,1.44"/><path d="M71.5,55.2a1.44,1.44,0,0,1-1.44-1.44V43.23a1.44,1.44,0,1,1,2.88,0V53.76A1.44,1.44,0,0,1,71.5,55.2"/><path d="M71.5,111a1.44,1.44,0,0,1-1.44-1.44V99.91a1.44,1.44,0,1,1,2.88,0v9.66A1.44,1.44,0,0,1,71.5,111"/><path d="M71.5,111a1.45,1.45,0,0,1-.72-.19L62.38,106a1.44,1.44,0,0,1,1.44-2.5l7.69,4.45,7.58-4.39A1.44,1.44,0,0,1,80.53,106l-8.3,4.81a1.43,1.43,0,0,1-.72.19"/><path d="M71.5,77.82a1.45,1.45,0,0,1-.72-.19l-8.38-4.84a1.44,1.44,0,0,1,1.44-2.5l7.66,4.42,7.63-4.42a1.44,1.44,0,0,1,1.44,2.49l-8.35,4.84a1.43,1.43,0,0,1-.72.19"/><path d="M91.81,66.07a1.44,1.44,0,0,1-.72-2.69l8.36-4.83a1.44,1.44,0,0,1,1.44,2.5l-8.36,4.83a1.44,1.44,0,0,1-.72.19"/><path d="M100.17,61.23a1.43,1.43,0,0,1-.72-.19L91.08,56.2a1.44,1.44,0,0,1,1.44-2.5l8.37,4.84a1.44,1.44,0,0,1-.72,2.69"/><path d="M51.16,66.07a1.44,1.44,0,0,1-.72-.19L42.08,61a1.44,1.44,0,0,1,1.44-2.5l8.37,4.83a1.44,1.44,0,0,1-.72,2.69"/><path d="M42.8,61.23a1.44,1.44,0,0,1-.72-2.69l8.36-4.82a1.44,1.44,0,0,1,1.44,2.5L43.52,61a1.45,1.45,0,0,1-.72.19"/><path d="M91.8,99.24a1.44,1.44,0,0,1-.72-2.69l8.38-4.83a1.44,1.44,0,1,1,1.44,2.5l-8.38,4.83a1.44,1.44,0,0,1-.72.19"/><path d="M100.17,94.41a1.43,1.43,0,0,1-.72-.19l-8.37-4.83a1.44,1.44,0,0,1,1.44-2.5l8.37,4.83a1.44,1.44,0,0,1-.72,2.69"/><path d="M51.16,99.25a1.44,1.44,0,0,1-.72-.19l-8.37-4.84a1.44,1.44,0,0,1,1.44-2.5l8.37,4.84a1.44,1.44,0,0,1-.72,2.69"/><path d="M42.8,94.41a1.44,1.44,0,0,1-.72-2.69l8.35-4.84a1.44,1.44,0,0,1,1.44,2.5l-8.35,4.83a1.44,1.44,0,0,1-.72.19"/><g class="cls-12"><g class="cls-13"><path d="M42.8,60.61a.82.82,0,0,1-.41-1.53L71.09,42.51a.82.82,0,0,1,.82,1.42L43.21,60.5a.82.82,0,0,1-.41.11"/></g></g><g class="cls-12"><g class="cls-14"><path d="M42.8,93.79a.82.82,0,0,1-.41-1.53L99.76,59.08a.82.82,0,0,1,.82,1.42L43.21,93.68a.82.82,0,0,1-.41.11"/></g></g><g class="cls-12"><g class="cls-15"><path d="M100.17,60.61a.82.82,0,0,1-.41-.11L71.09,43.94a.82.82,0,0,1,.82-1.42l28.67,16.57a.82.82,0,0,1-.41,1.53"/></g></g><g class="cls-12"><g class="cls-16"><path d="M100.17,93.79a.81.81,0,0,1-.41-.11L42.39,60.5a.82.82,0,0,1,.82-1.42l57.38,33.18a.82.82,0,0,1-.41,1.53"/></g></g><g class="cls-12"><g class="cls-17"><path d="M71.5,110.4a.82.82,0,0,1-.41-.11L42.39,93.68a.82.82,0,0,1,.82-1.42l28.71,16.61a.82.82,0,0,1-.41,1.53"/></g></g><g class="cls-12"><g class="cls-18"><path d="M71.51,110.4a.82.82,0,0,1-.41-1.53L99.76,92.26a.82.82,0,0,1,.82,1.42L71.92,110.29a.82.82,0,0,1-.41.11"/></g></g><g class="cls-12"><g class="cls-19"><path d="M42.8,93.79A.82.82,0,0,1,42,93V59.79a.82.82,0,1,1,1.64,0V93a.82.82,0,0,1-.82.82"/></g></g><g class="cls-12"><g class="cls-20"><path d="M100.18,93.79a.82.82,0,0,1-.82-.82V59.79a.82.82,0,1,1,1.64,0V93a.82.82,0,0,1-.82.82"/></g></g><g class="cls-12"><g class="cls-21"><path d="M71.5,110.3a.82.82,0,0,1-.82-.82V43.23a.82.82,0,0,1,1.64,0v66.25a.82.82,0,0,1-.82.82"/></g></g></g></g><g class="cls-10"><g class="cls-22"><path d="M146.53,83.49H131.44l-3.81,10.86h-5l14-37.94h4.68l14,37.94h-5Zm-13.7-4h12.31L139.2,62.53h-.42Z"/><path d="M166.7,94.35H162V56.41h14.49c7.31,0,12.09,4.47,12.09,11.31,0,5.28-2.87,9.39-7.62,10.88l8.78,15.75h-5.55l-8.12-15H166.7Zm0-19.22H176c4.86,0,7.63-2.6,7.63-7.26s-2.94-7.26-7.84-7.26H166.7Z"/></g></g></g></g></g></svg>